<?xml version="1.0" standalone="no"?>
<!DOCTYPE svg PUBLIC "-//W3C//DTD SVG 20010904//EN"
 "http://www.w3.org/TR/2001/REC-SVG-20010904/DTD/svg10.dtd">
<svg version="1.0" xmlns="http://www.w3.org/2000/svg"
 width="605.000000pt" height="114.000000pt" viewBox="0 0 605.000000 114.000000"
 preserveAspectRatio="xMidYMid meet">
<metadata>
Created by potrace 1.16, written by Peter Selinger 2001-2019
</metadata>
<g transform="translate(0.000000,114.000000) scale(0.100000,-0.100000)"
fill="#000000" stroke="none">
<path d="M1020 550 l0 -210 50 0 50 0 0 70 0 70 28 0 c25 0 32 -8 62 -70 l34
-70 58 0 59 0 -44 85 c-42 80 -43 86 -26 96 55 29 65 152 16 195 -33 28 -107
44 -207 44 l-80 0 0 -210z"/>
<path d="M1400 550 l0 -210 145 0 145 0 0 40 0 40 -95 0 -95 0 0 45 0 45 80 0
80 0 0 40 0 40 -80 0 -80 0 0 40 0 40 95 0 95 0 0 45 0 45 -145 0 -145 0 0
-210z"/>
<path d="M1720 551 l0 -212 52 3 52 3 -3 68 -2 67 63 0 c77 0 126 23 150 71
23 44 23 81 -2 128 -28 56 -73 74 -202 79 l-108 5 0 -212z"/>
<path d="M2195 746 c-41 -19 -83 -66 -95 -107 -16 -56 -12 -159 9 -205 10 -23
36 -54 57 -70 33 -25 46 -29 104 -29 58 0 71 4 104 29 21 16 47 47 57 70 21
46 25 148 9 206 -11 41 -61 94 -103 109 -38 15 -106 13 -142 -3z m124 -91 c33
-31 36 -163 5 -212 -22 -34 -87 -32 -110 3 -21 31 -24 157 -5 192 22 41 76 49
110 17z"/>
<path d="M2834 746 c-46 -20 -74 -62 -74 -109 0 -32 6 -46 34 -71 18 -18 55
-40 82 -50 69 -26 94 -43 94 -66 0 -50 -94 -49 -114 2 -10 27 -13 29 -61 26
-47 -3 -50 -5 -47 -28 16 -130 268 -164 318 -43 32 76 -12 139 -128 183 -63
23 -81 40 -72 64 14 35 104 28 104 -9 0 -12 12 -15 55 -15 55 0 55 0 49 28 -9
36 -41 71 -81 88 -41 18 -119 17 -159 0z"/>
<path d="M3100 715 l0 -45 60 0 60 0 0 -165 0 -165 50 0 50 0 0 165 0 165 65
0 65 0 0 45 0 45 -175 0 -175 0 0 -45z"/>
<path d="M3569 733 c-34 -89 -139 -382 -139 -387 0 -3 24 -6 54 -6 53 0 55 1
66 35 l12 35 68 0 69 0 7 -35 6 -35 60 0 c53 0 59 2 53 18 -4 9 -39 104 -78
210 l-72 192 -48 0 c-43 0 -49 -3 -58 -27z"/>
<path d="M3810 715 l0 -45 60 0 60 0 0 -166 0 -165 51 3 51 3 -1 163 -2 162
66 0 66 0 -3 43 -3 42 -172 3 -173 2 0 -45z"/>
<path d="M4200 590 l0 -169 31 -35 c67 -77 215 -72 272 8 21 29 22 41 22 196
l0 165 -52 3 -53 3 0 -159 c0 -131 -3 -162 -15 -172 -19 -16 -73 -16 -89 0 -7
7 -12 71 -14 170 l-3 160 -50 0 -49 0 0 -170z"/>
<path d="M4664 746 c-46 -20 -74 -62 -74 -109 0 -32 6 -46 34 -71 18 -18 55
-40 82 -50 69 -26 94 -43 94 -66 0 -50 -94 -49 -113 1 -10 26 -16 29 -59 29
-46 0 -48 -1 -48 -29 0 -61 83 -121 170 -121 116 0 189 85 145 170 -19 36 -57
64 -127 90 -63 23 -81 40 -72 64 13 35 88 32 99 -5 5 -16 16 -19 62 -19 l55 0
-7 28 c-9 35 -42 71 -82 88 -41 18 -119 17 -159 0z"/>
</g>
</svg>
